{"title":"13Hrs-AC3-XviD-BRRip[Eng]2010 2Lions-Team","uid":5934012,"size":1198071964,"categoryP":"video","categoryS":"movies","magnet":"?xt=urn:btih:2cb694ffb1294f9f7c1fca3855b403bd6ec37eb1&amp;dn=13Hrs-AC3-XviD-BRRip%5BEng%5D2010+2Lions-Team&amp;tr=udp%3A%2F%2Ftracker.openbittorrent.com%3A80&amp;tr=udp%3A%2F%2Fopen.demonii.com%3A1337&amp;tr=udp%3A%2F%2Ftracker.coppersurfer.tk%3A6969&amp;tr=udp%3A%2F%2Fexodus.desync.com%3A6969","seeders":0,"leechers":0,"uploader":"FatFreddy31","files":11,"time":1288885366,"description":"Sarah Tyler returns to her troubled family home in the isolated countryside, for a much put-off visit. As a storm rages outside, Sarah, her family and friends shore up for the night, cut off from the outside world. But something comes out of the driving rain and darkness. Something that holds a dark secret so devastating that, in one night, it could wipe out the entire family.\n &lt;a href=&quot;\nhttp://www.imdb.com/title/tt1411232/&quot; rel=&quot;nofollow&quot; target=&quot;_NEW&quot;&gt;\nhttp://www.imdb.com/title/tt1411232/&lt;/a&gt;\n\nSubtitles (srt) : Dutch.\n\nCovers included.\n\nHet is volle maan en hoog in de donkere wolken onweert het. Sarah Tyler keert terug haar familiehuis, dat op een afgelegen plattelandsgebied ligt. De storm is nog niet opgehouden, dus Sarah, haar vrienden en haar familie, maken zich klaar voor de nacht. Maar dan verschijnt er iets uit de donkere nacht, iets met een duister geheim. Sarah en de rest moeten nu zien te overleven.\n &lt;a href=&quot;\nhttp://www.moviemeter.nl/film/62436&quot; rel=&quot;nofollow&quot; target=&quot;_NEW&quot;&gt;\nhttp://www.moviemeter.nl/film/62436&lt;/a&gt;\n\nOndertitels (srt) : Nederlands.\n\nHoesjes bijgevoegd.\n\nGeneral\nComplete name                    : 13Hrs-AC3-XviD-BRRip[Eng]2010 2Lions-Team\\13Hrs-AC3-XviD-BRRip[Eng]2010 2Lions-Team.avi\nFormat                           : AVI\nFormat/Info                      : Audio Video Interleave\nFile size                        : 1.12 GiB\nDuration                         : 1h 24mn\nOverall bit rate                 : 1 881 Kbps\nWriting application              : VirtualDubMod 1.5.4.1 (build 2178/release)\nWriting library                  : VirtualDubMod build 2178/release\nSource                           : 13Hrs.2010.1080p.BluRay.x264-MeTH\n\nVideo\nID                               : 0\nFormat                           : MPEG-4 Visual\nFormat profile                   : Simple@L3\nFormat settings, BVOP            : No\nFormat settings, QPel            : No\nFormat settings, GMC             : No warppoints\nFormat settings, Matrix          : Default (H.263)\nCodec ID                         : XVID\nCodec ID/Hint                    : XviD\nDuration                         : 1h 24mn\nBit rate                         : 1 424 Kbps\nWidth                            : 720 pixels\nHeight                           : 400 pixels\nDisplay aspect ratio             : 16:9\nFrame rate                       : 23.976 fps\nResolution                       : 8 bits\nColorimetry                      : 4:2:0\nScan type                        : Progressive\nBits/(Pixel*Frame)               : 0.206\nStream size                      : 864 MiB (76%)\nWriting library                  : XviD 1.1.2 (UTC 2006-11-01)\n\nAudio\nID                               : 1\nFormat                           : AC-3\nFormat/Info                      : Audio Coding 3\nCodec ID                         : 2000\nDuration                         : 1h 24mn\nBit rate mode                    : Constant\nBit rate                         : 448 Kbps\nChannel(s)                       : 6 channels\nChannel positions                : Front: L C R, Surround: L R, LFE\nSampling rate                    : 48.0 KHz\nStream size                      : 272 MiB (24%)\nAlignment                        : Split accross interleaves\nInterleave, duration             : 42 ms (1.00 video frame)\nInterleave, preload duration     : 500 ms\n\nThanks to Fast Gollums Twilight Release Team for the source, and Dutch subs.Nice job peeps!\n \nBrought to you by Gollum\n\nDON T HIT AND RUN Niet gelijk afhaken als de FILM binnen is blijf seeden. \n\nDon`t quit after you finished the download, but keep seeding\n\nThere are fake torrents from uploaders who use our team name.\nThose are not ours, or members from our team.\nWe 2Lions-Team are not responsible for the fake posts on our name\n\nWij 2Lions-Team zijn niet verantwoordelijk voor die zieke FAKE posten die op onze naam worden gedaan\n\nPlease check our site !!!\n\nto the fakers , get a life !!!","torrent":{"xt":"urn:btih:2cb694ffb1294f9f7c1fca3855b403bd6ec37eb1","amp;dn":"13Hrs-AC3-XviD-BRRip%5BEng%5D2010+2Lions-Team","amp;tr":["udp%3A%2F%2Ftracker.openbittorrent.com%3A80","udp%3A%2F%2Fopen.demonii.com%3A1337","udp%3A%2F%2Ftracker.coppersurfer.tk%3A6969","udp%3A%2F%2Fexodus.desync.com%3A6969"],"infoHash":"2cb694ffb1294f9f7c1fca3855b403bd6ec37eb1","infoHashBuffer":{"type":"Buffer","data":[44,182,148,255,177,41,79,159,124,31,202,56,85,180,3,189,110,195,126,177]},"announce":[],"urlList":[]}}